<svg xmlns="http://www.w3.org/2000/svg" fill="none" font-family="Arial, Helvetica, sans-serif" width="1200" height="675" viewBox="0 0 1200 675"><rect width="1200" height="675" fill="#171b24"/><rect x="634" width="566" height="675" fill="#1d222d"/><text x="58" y="68" fill="#a7b0c2" font-size="17" >Magnus Leu / Selected work</text><circle cx="1140" cy="62" r="6" fill="#bdbfe6"/><text x="56" y="245" fill="#edf0f5" font-size="84" font-weight="500" letter-spacing="-4">Sleep</text><text x="56" y="335" fill="#edf0f5" font-size="84" font-weight="500" letter-spacing="-4">states.</text><text x="59" y="393" fill="#b3bdcf" font-size="18" >Nightly movement → Sleep and wake events</text><path d="M59 539h502" stroke="#3e4657" stroke-width="1.5" fill="none" /><text x="59" y="579" fill="#bdbfe6" font-size="16" >1D ResNet-UNet / Wrist accelerometry</text><g transform="translate(672 118)"><g><path d="M300 63a102 102 0 1 0 104 147A105 105 0 0 1 300 63Z" fill="#bdbfe6"/><circle cx="365" cy="85" r="3" fill="#bdbfe6"/><circle cx="412" cy="119" r="2" fill="#bdbfe6"/><rect x="38" y="310" width="402" height="82" rx="12" fill="#252a3c" stroke="#656b94" stroke-width="1.5"/><rect x="57" y="334" width="23" height="35" rx="3" fill="#424968" stroke="none" stroke-width="1.5"/><rect x="90" y="334" width="23" height="35" rx="3" fill="#424968" stroke="none" stroke-width="1.5"/><rect x="123" y="334" width="23" height="35" rx="3" fill="#aaaed5" stroke="none" stroke-width="1.5"/><rect x="156" y="334" width="23" height="35" rx="3" fill="#aaaed5" stroke="none" stroke-width="1.5"/><rect x="189" y="334" width="23" height="35" rx="3" fill="#aaaed5" stroke="none" stroke-width="1.5"/><rect x="222" y="334" width="23" height="35" rx="3" fill="#aaaed5" stroke="none" stroke-width="1.5"/><rect x="255" y="334" width="23" height="35" rx="3" fill="#aaaed5" stroke="none" stroke-width="1.5"/><rect x="288" y="334" width="23" height="35" rx="3" fill="#aaaed5" stroke="none" stroke-width="1.5"/><rect x="321" y="334" width="23" height="35" rx="3" fill="#aaaed5" stroke="none" stroke-width="1.5"/><rect x="354" y="334" width="23" height="35" rx="3" fill="#424968" stroke="none" stroke-width="1.5"/><rect x="387" y="334" width="23" height="35" rx="3" fill="#424968" stroke="none" stroke-width="1.5"/><text x="56" y="428" fill="#9da7bf" font-size="16" >Wake</text><text x="214" y="428" fill="#c1c4e7" font-size="16" >Sleep</text><text x="391" y="428" fill="#9da7bf" font-size="16" >Wake</text></g></g></svg>