<svg xmlns="http://www.w3.org/2000/svg" fill="none" font-family="Arial, Helvetica, sans-serif" width="480" height="480" viewBox="0 0 480 480"><rect width="480" height="480" rx="20" fill="#202632"/><g><path d="M25 95h96v75h74M25 370h96v-80h74M285 170h85V95h88M285 290h85v80h88M240 54v61M240 345v62" stroke="#7b896c" stroke-width="2" fill="none" /><rect x="142" y="132" width="196" height="212" rx="24" fill="#2c342c" stroke="#a7b794" stroke-width="1.5"/><rect x="158" y="148" width="164" height="180" rx="16" fill="none" stroke="#62745b" stroke-width="1.5"/><text x="240" y="195" fill="#cdd8bd" font-size="18" text-anchor="middle">Specification</text><text x="240" y="246" fill="#e0e9d3" font-size="23" text-anchor="middle">Circuit agent</text><text x="240" y="292" fill="#cdd8bd" font-size="18" text-anchor="middle">Testbench</text><path d="M181 211h118M181 264h118" stroke="#62745b" stroke-width="1.5" fill="none" /><circle cx="25" cy="95" r="7" fill="#171c22" stroke="#9eae8b" stroke-width="2"/><circle cx="25" cy="370" r="7" fill="#171c22" stroke="#9eae8b" stroke-width="2"/><circle cx="458" cy="95" r="7" fill="#171c22" stroke="#9eae8b" stroke-width="2"/><circle cx="458" cy="370" r="7" fill="#171c22" stroke="#9eae8b" stroke-width="2"/><circle cx="240" cy="54" r="7" fill="#171c22" stroke="#9eae8b" stroke-width="2"/><circle cx="240" cy="407" r="7" fill="#171c22" stroke="#9eae8b" stroke-width="2"/></g></svg>